<svg xmlns="http://www.w3.org/2000/svg" width="16" height="16" viewBox="0 0 16 16"><defs><style>.a{fill:#fff;}</style></defs><path class="a" d="M10.731,16.028a8,8,0,1,1,8-8,8,8,0,0,1-8,8Zm0-14.935a6.933,6.933,0,1,0,6.933,6.934A6.934,6.934,0,0,0,10.731,1.094Zm3.682,7.4H11.274l-.014,3.574a.586.586,0,0,1-.588.7c-.585,0-.527-.375-.527-.657V8.5H6.7c-.225,0-.493,0-.493-.684,0-.509.626-.451.626-.451h3.316V3.912c0-.226.175-.427.563-.4s.563.179.563.4V7.361h3.14s.715-.093.708.541-.563.593-.707.593Z" transform="translate(-2.731 -0.028)"/></svg>