<svg xmlns="http://www.w3.org/2000/svg" width="16" height="15.997" viewBox="0 0 16 15.997"><defs><style>.a{fill:#fff;}</style></defs><path class="a" d="M14.5,6.1a.591.591,0,0,0-.594.572v8.556a.57.57,0,0,1-.577.564h-8a.573.573,0,0,1-.58-.564V6.647a.547.547,0,1,0-1.094,0v8.579a1.728,1.728,0,0,0,1.673,1.767h8a1.806,1.806,0,0,0,1.764-1.767V6.67A.593.593,0,0,0,14.5,6.1ZM8.14,12.942V6.656a.547.547,0,1,0-1.094,0v6.285a.547.547,0,1,0,1.094,0Zm3.469,0V6.656a.594.594,0,0,0-1.188,0v6.285a.594.594,0,0,0,1.188,0Zm5.146-9.118h-2.85V2.657A1.671,1.671,0,0,0,12.2,1H6.47A1.677,1.677,0,0,0,4.75,2.657V3.824H1.9a.547.547,0,1,0,0,1.094H16.756a.547.547,0,1,0,0-1.094Zm-4.037,0H5.859V2.657A.6.6,0,0,1,6.47,2.09H12.2a.526.526,0,0,1,.52.567V3.824Z" transform="translate(-1.328 -0.996)"/></svg>