<svg xmlns="http://www.w3.org/2000/svg" width="16" height="16" viewBox="0 0 16 16"><defs><style>.a{fill:#fff;}</style></defs><path class="a" d="M116.267,110.623a.727.727,0,0,0-.727.727l.006,4.364-13.091.006-.006-13.1h4.368a.727.727,0,0,0,0-1.455h-4.368A1.451,1.451,0,0,0,101,102.617v13.1a1.45,1.45,0,0,0,1.448,1.449h13.1a1.451,1.451,0,0,0,1.448-1.449V111.35a.727.727,0,0,0-.727-.727m-.715-9.455H111.9a.727.727,0,0,0,0,1.455l2.611,0-6.034,6.036a.727.727,0,1,0,1.029,1.028l6.035-6.037v2.62a.727.727,0,1,0,1.454,0v-3.648a1.451,1.451,0,0,0-1.448-1.449" transform="translate(-101 -101.168)"/></svg>