<svg xmlns="http://www.w3.org/2000/svg" width="16" height="16" viewBox="0 0 16 16"><defs><style>.a{fill:#fff;}</style></defs><path class="a" d="M1.567,16.035A1.45,1.45,0,0,1,.119,14.587V1.491A1.451,1.451,0,0,1,1.567.043H5.937a.727.727,0,1,1,0,1.455H1.567l.007,13.1,13.094-.007-.006-4.362a.728.728,0,0,1,1.455,0v4.369a1.452,1.452,0,0,1-1.449,1.448ZM8.834,8.764A1.451,1.451,0,0,1,7.384,7.316V3.67a.728.728,0,0,1,1.455,0V6.289L14.876.254a.727.727,0,1,1,1.029,1.028L9.87,7.315h2.612a.727.727,0,1,1,0,1.454Z" transform="translate(-0.119 -0.04)"/></svg>