<svg xmlns="http://www.w3.org/2000/svg" width="16" height="16" viewBox="0 0 16 16"><defs><style>.a{fill:#666;}</style></defs><path class="a" d="M93.444,99.851a6.551,6.551,0,0,1,11.71-3.886l-1.147.9a.152.152,0,0,0,.057.269l3.347.819a.153.153,0,0,0,.189-.147l.015-3.446a.151.151,0,0,0-.246-.12l-1.074.84A8,8,0,0,0,92,99.844a.153.153,0,0,0,.152.156h1.143A.152.152,0,0,0,93.444,99.851Zm14.4.149H106.7a.152.152,0,0,0-.152.149,6.552,6.552,0,0,1-11.712,3.886l1.147-.9a.152.152,0,0,0-.057-.269l-3.347-.819a.153.153,0,0,0-.189.147l-.013,3.448a.151.151,0,0,0,.246.12l1.074-.84a8,8,0,0,0,14.3-4.769A.153.153,0,0,0,107.844,100Z" transform="translate(-91.996 -92)"/></svg>