<svg xmlns="http://www.w3.org/2000/svg" xmlns:xlink="http://www.w3.org/1999/xlink" width="14" height="14" viewBox="0 0 14 14"><defs><style>.a{fill:none;opacity:0.14;}.b{clip-path:url(#a);}.c{fill:#999;}</style><clipPath id="a"><rect class="a" width="14" height="14" transform="translate(527 435)"/></clipPath></defs><g transform="translate(-527 -435)"><g class="b"><path class="c" d="M-109.627,12.25h-2.621a.871.871,0,0,0-.872.872V25.31a.872.872,0,0,0,.872.872h2.621a.872.872,0,0,0,.872-.872V13.122a.871.871,0,0,0-.872-.872Zm-1.743,11.759a.435.435,0,0,1,.128-.308.434.434,0,0,1,.308-.128.434.434,0,0,1,.308.128.435.435,0,0,1,.128.308.434.434,0,0,1-.128.308.434.434,0,0,1-.308.128.435.435,0,0,1-.436-.436Zm.872-3.159a.109.109,0,0,1-.109.109h-.654a.109.109,0,0,1-.109-.109V14.1a.109.109,0,0,1,.109-.109h.654a.109.109,0,0,1,.109.109Zm5.665-8.6h-2.622a.871.871,0,0,0-.872.872V25.31a.872.872,0,0,0,.872.872h2.622a.872.872,0,0,0,.872-.872V13.122a.872.872,0,0,0-.872-.872Zm-1.743,11.759a.435.435,0,0,1,.128-.308.434.434,0,0,1,.308-.128.434.434,0,0,1,.308.128.434.434,0,0,1,.128.308.434.434,0,0,1-.128.308.434.434,0,0,1-.308.128.435.435,0,0,1-.436-.436Zm.872-3.159a.109.109,0,0,1-.109.109h-.654a.109.109,0,0,1-.109-.109V14.1a.109.109,0,0,1,.109-.109h.654a.109.109,0,0,1,.109.109Zm5.665-8.6h-2.621a.871.871,0,0,0-.872.872V25.31a.872.872,0,0,0,.872.872h2.621a.872.872,0,0,0,.872-.872V13.122a.872.872,0,0,0-.872-.872Zm-1.743,11.759a.435.435,0,0,1,.128-.308.434.434,0,0,1,.308-.128.434.434,0,0,1,.308.128.435.435,0,0,1,.128.308.434.434,0,0,1-.128.308.434.434,0,0,1-.308.128.435.435,0,0,1-.436-.436Zm.872-3.159a.109.109,0,0,1-.109.109h-.654a.109.109,0,0,1-.109-.109V14.1a.109.109,0,0,1,.109-.109h.654a.109.109,0,0,1,.109.109Zm0,0" transform="translate(640.12 422.75)"/></g></g></svg>