<svg xmlns="http://www.w3.org/2000/svg" xmlns:xlink="http://www.w3.org/1999/xlink" width="14" height="14" viewBox="0 0 14 14"><defs><style>.a{fill:#fff;}.b{clip-path:url(#a);}.c{fill:#999;}</style><clipPath id="a"><rect class="a" width="14" height="14" transform="translate(526 554)"/></clipPath></defs><g transform="translate(-528 -554)"><g class="b" transform="translate(2)"><g transform="translate(523 466.11)"><path class="c" d="M113.406,88.462v1.144a.574.574,0,0,1-.572.572H105.97a.574.574,0,0,1-.572-.572V88.462a.574.574,0,0,1,.572-.572h6.864a.574.574,0,0,1,.572.572Zm0,0" transform="translate(-100.11)"/><path class="c" d="M14.44,113.492v1.037a1.644,1.644,0,0,1-1.716,1.555H5.86a1.644,1.644,0,0,1-1.716-1.555v-1.037A1.066,1.066,0,0,0,3,114.449v10.525a.883.883,0,0,0,.316.659,1.194,1.194,0,0,0,.127.1c.027.018.055.034.084.05a1.016,1.016,0,0,0,.121.057l.05.019.052.018q.067.019.134.034l.055.01a1.374,1.374,0,0,0,.2.015h6.463a3.2,3.2,0,0,1-.254-.445,2.989,2.989,0,0,1-.286-1.275v0a2.978,2.978,0,0,1,.286-1.275,3.267,3.267,0,0,1,.774-1.04,3.672,3.672,0,0,1,1.149-.7,3.935,3.935,0,0,1,1.407-.259h0a3.9,3.9,0,0,1,1.407.259,3.787,3.787,0,0,1,.492.23v-6.973a1.064,1.064,0,0,0-1.142-.957ZM12.556,120.6a.6.6,0,0,1-.4.152H6.432a.549.549,0,0,1-.572-.518.494.494,0,0,1,.168-.366.6.6,0,0,1,.4-.152h5.72a.549.549,0,0,1,.572.518.494.494,0,0,1-.168.366Zm0-2.067a.6.6,0,0,1-.4.152H6.432a.549.549,0,0,1-.572-.518.494.494,0,0,1,.168-.366.6.6,0,0,1,.4-.152h5.72a.549.549,0,0,1,.572.518.494.494,0,0,1-.168.366Zm0,0" transform="translate(0 -25.03)"/><path class="c" d="M113.406,88.462v1.144a.574.574,0,0,1-.572.572H105.97a.574.574,0,0,1-.572-.572V88.462a.574.574,0,0,1,.572-.572h6.864a.574.574,0,0,1,.572.572Zm0,0" transform="translate(-100.11)"/><path class="c" d="M372.991,532.21a2.472,2.472,0,1,0,2.472,2.472,2.474,2.474,0,0,0-2.472-2.472Zm-.027,3.607a1.231,1.231,0,1,1,1.652-1.157,1.785,1.785,0,0,1-1.652,1.157Zm0,0" transform="translate(-359.307 -435.681)"/><path class="c" d="M454.511,614.987a.6.6,0,1,1-.6-.617.607.607,0,0,1,.6.617Zm0,0" transform="translate(-440.258 -516.005)"/></g></g></g></svg>