<svg xmlns="http://www.w3.org/2000/svg" xmlns:xlink="http://www.w3.org/1999/xlink" width="14" height="14" viewBox="0 0 14 14"><defs><style>.a{fill:#fff;}.b{clip-path:url(#a);}.c{fill:#999;}</style><clipPath id="a"><rect class="a" width="14" height="14" transform="translate(522 510)"/></clipPath></defs><g transform="translate(-522 -510)"><g class="b"><g transform="translate(-41.486 70.029)"><path class="c" d="M95.718,110.492a3.22,3.22,0,1,0,3.22-3.282,3.251,3.251,0,0,0-3.22,3.282Zm0,0" transform="translate(471.953 332.761)"/><path class="c" d="M-61.406,484.651H-63.1a5.451,5.451,0,0,0-5.581,5.426v.37a.775.775,0,0,0,.775.775H-56.6a.775.775,0,0,0,.775-.775v-.37a5.451,5.451,0,0,0-5.582-5.426Zm3.415,3.573c0,.15-.074.271-.164.271h-.915v.777c0,.091-.119.167-.267.167h-.535c-.147,0-.267-.074-.267-.167V488.5h-.882c-.091,0-.164-.121-.164-.271v-.543c0-.15.074-.271.164-.271h.882v-.857c0-.092.119-.167.267-.167h.533c.147,0,.267.074.267.167v.857h.915c.092,0,.164.121.164.271v.543Zm0,0" transform="translate(633.166 -37.366)"/></g></g></g></svg>