<svg xmlns="http://www.w3.org/2000/svg" xmlns:xlink="http://www.w3.org/1999/xlink" width="14" height="14" viewBox="0 0 14 14"><defs><style>.a{fill:#fff;}.b{clip-path:url(#a);}.c{fill:#999;}</style><clipPath id="a"><rect class="a" width="14" height="14" transform="translate(525 478)"/></clipPath></defs><g transform="translate(-525 -478)"><g class="b"><path class="c" d="M-15.763,111.747l-10.463.015a.494.494,0,0,0-.488.5.5.5,0,0,0,.488.5l10.463-.016a.465.465,0,0,0,.318-.124.508.508,0,0,0,.163-.38.488.488,0,0,0-.48-.5Zm-.17-12.857h-10.13A1.964,1.964,0,0,0-28,100.88v8.264a1.964,1.964,0,0,0,1.936,1.99h10.13A1.969,1.969,0,0,0-14,109.144V100.88a1.969,1.969,0,0,0-1.936-1.99Zm-.6,4.2-3.787,4.144a.266.266,0,0,1-.426-.039L-22.3,104.8a.26.26,0,0,0-.411-.046l-2.091,1.99a.552.552,0,0,1-.72,0,.558.558,0,0,1,.077-.7l2.835-2.664a.269.269,0,0,1,.411.046l1.526,2.354a.27.27,0,0,0,.426.039l3.09-3.369a.494.494,0,0,1,.682.008.458.458,0,0,1-.062.627Zm0,0" transform="translate(553 379.11)"/></g></g></svg>