<svg xmlns="http://www.w3.org/2000/svg" xmlns:xlink="http://www.w3.org/1999/xlink" width="14" height="14" viewBox="0 0 14 14"><defs><style>.a{fill:#fff;}.b{clip-path:url(#a);}.c{fill:#999;}</style><clipPath id="a"><rect class="a" width="14" height="14" transform="translate(527 434)"/></clipPath></defs><g transform="translate(-527 -434)"><g class="b"><path class="c" d="M-19.316,96.332l5.355,3.844a2.009,2.009,0,0,1,.837,1.631v6.2a2.008,2.008,0,0,1-2.008,2.008h-2.739v-2.921a2.191,2.191,0,0,0-2.191-2.191,2.191,2.191,0,0,0-2.191,2.191v2.921h-2.739A2.008,2.008,0,0,1-27,108.006v-6.2a2.008,2.008,0,0,1,.837-1.632l5.356-3.844a1.278,1.278,0,0,1,1.491,0Zm0,0" transform="translate(554 337.908)"/></g></g></svg>