<svg xmlns="http://www.w3.org/2000/svg" xmlns:xlink="http://www.w3.org/1999/xlink" width="14" height="14" viewBox="0 0 14 14"><defs><style>.a{fill:#fff;}.b{clip-path:url(#a);}.c{fill:#999;}</style><clipPath id="a"><rect class="a" width="14" height="14" transform="translate(527 594)"/></clipPath></defs><g transform="translate(-527 -594)"><g class="b"><g transform="translate(537 480.11)"><path class="c" d="M370.07,115.434h-3.857a.772.772,0,1,1,0-1.544h3.857a.772.772,0,0,1,0,1.544Zm0,0" transform="translate(-366.955)"/><path class="c" d="M2.345,117.055H-1.718a1.543,1.543,0,0,1-1.528-1.326l-.062-.436a1.544,1.544,0,0,0-1.528-1.326H-8.458A1.547,1.547,0,0,0-10,115.511v10.8a1.547,1.547,0,0,0,1.542,1.542h10.8a1.547,1.547,0,0,0,1.543-1.542V118.6a1.54,1.54,0,0,0-1.541-1.542Zm-8.488,9.258a.774.774,0,0,1-.772-.772.774.774,0,0,1,.772-.772.774.774,0,0,1,.772.772.774.774,0,0,1-.772.772Zm.772-3.859a.774.774,0,0,1-.772.772.774.774,0,0,1-.772-.772v-3.085a.774.774,0,0,1,.772-.772.774.774,0,0,1,.772.772Zm2.315,3.859a.774.774,0,0,1-.772-.772.774.774,0,0,1,.772-.772.774.774,0,0,1,.772.772.774.774,0,0,1-.772.772Zm.772-3.859a.774.774,0,0,1-.772.772.774.774,0,0,1-.772-.772v-3.085a.774.774,0,0,1,.772-.772.774.774,0,0,1,.772.772Zm2.315,3.859a.772.772,0,1,1,0-1.544.774.774,0,0,1,.772.772.776.776,0,0,1-.772.772Zm.77-3.859a.774.774,0,0,1-.772.772.774.774,0,0,1-.772-.772v-3.085a.774.774,0,0,1,.772-.772.774.774,0,0,1,.772.772Zm0,0" transform="translate(0 -0.076)"/></g></g></g></svg>