<svg xmlns="http://www.w3.org/2000/svg" xmlns:xlink="http://www.w3.org/1999/xlink" width="14" height="14" viewBox="0 0 14 14"><defs><style>.a{fill:#fff;}.b{clip-path:url(#a);}.c{fill:#999;}</style><clipPath id="a"><rect class="a" width="14" height="14" transform="translate(537 667)"/></clipPath></defs><g transform="translate(-527 -667)"><g class="b" transform="translate(-10)"><path class="c" d="M-48.13,88.192a.381.381,0,0,0-.011-.066v-.012l-.006-.034a.985.985,0,0,0-.914-.889h-.073a1.376,1.376,0,0,1-1.374-1.374,1.72,1.72,0,0,1,.116-.511,1.08,1.08,0,0,0-.547-1.368l-1.676-.948-.031-.011a1.38,1.38,0,0,0-.433-.089,1.28,1.28,0,0,0-.854.351,2.247,2.247,0,0,1-1.118.65,2.241,2.241,0,0,1-1.118-.65,1.227,1.227,0,0,0-.854-.351,1.31,1.31,0,0,0-.433.089l-.028.011-1.757.951-.011.006a1.114,1.114,0,0,0-.383,1.365l.006.013a1.571,1.571,0,0,1,.141.562,1.376,1.376,0,0,1-1.374,1.374h-.073a.958.958,0,0,0-.914.895l-.006.031V88.2a.57.57,0,0,1-.011.066A8.323,8.323,0,0,0-62,89.51a8.117,8.117,0,0,0,.133,1.246.381.381,0,0,0,.011.066v.012l.006.034a.985.985,0,0,0,.914.889h.037a1.376,1.376,0,0,1,1.374,1.374,1.718,1.718,0,0,1-.116.511,1.16,1.16,0,0,0,.448,1.387l.012.006,1.656.921.031.011a1.361,1.361,0,0,0,.429.089,1.141,1.141,0,0,0,.854-.351c.019-.014.037-.033.059-.052.2-.175.737-.637,1.092-.637a2.146,2.146,0,0,1,1.151.722,1.227,1.227,0,0,0,.854.351,1.181,1.181,0,0,0,.556-.148l.006,0,1.7-.939.006-.006a1.114,1.114,0,0,0,.383-1.365l0-.006,0-.006a1.115,1.115,0,0,1-.111-.526l0-.016v-.016a1.376,1.376,0,0,1,1.374-1.374h.078a.958.958,0,0,0,.914-.895l.006-.031v-.011c0-.013.006-.031.011-.056A7.634,7.634,0,0,0-48,89.436a7.776,7.776,0,0,0-.13-1.243ZM-55,91.666a2.174,2.174,0,0,1-2.174-2.174A2.174,2.174,0,0,1-55,87.318a2.174,2.174,0,0,1,2.174,2.174A2.174,2.174,0,0,1-55,91.666Zm0,0" transform="translate(599 584.11)"/></g></g></svg>